<svg width="1728" height="970" viewBox="0 0 1728 970" fill="none" xmlns="http://www.w3.org/2000/svg">
<g opacity="0.05">
<path d="M1728.2 81.6709V183.461L1442.73 468.843L1335.42 361.564L1003.33 693.563L770.641 460.94L673.609 537.726L128.563 969.101H0L8.55777 962.324L545.039 537.726L770.478 359.305L1003.17 591.928L1335.27 259.937L1442.58 367.216L1728.2 81.6709Z" fill="url(#paint0_linear_88_24982)"/>
<path d="M1728.2 176.848V183.462L1442.73 468.844L1335.42 361.565L1003.33 693.564L770.641 460.941L673.609 537.726L128.563 969.102H0L8.55777 962.325H128.726L665.206 537.726L770.796 454.164L1003.49 686.787L1335.58 354.795L1442.9 462.066L1602.17 302.844L1728.2 176.848Z" fill="#702333"/>
<path d="M1728.2 81.6709V84.0931L1442.73 369.475L1335.42 262.196L1003.33 594.187L770.641 361.564L548.041 537.726L11.5599 962.324L3.00215 969.102H0L8.55777 962.324L545.039 537.726L770.478 359.305L1003.17 591.928L1335.27 259.937L1442.58 367.216L1728.2 81.6709Z" fill="#432136"/>
<path d="M673.609 537.726L128.563 969.101H0L8.55778 962.324L545.039 537.726H673.609Z" fill="url(#paint1_linear_88_24982)"/>
<path opacity="0.75" d="M1608.78 302.844L1511.64 399.961H1373.83L1335.42 361.564L1297.02 399.961H1195.2L1292.34 302.844H1378.19L1442.58 367.216L1506.96 302.844H1608.78Z" fill="url(#paint2_linear_88_24982)"/>
<path d="M624.474 665.753C620.46 665.313 616.846 668.224 616.405 672.237C615.973 676.249 618.877 679.87 622.891 680.303C626.905 680.743 630.527 677.831 630.968 673.819C631.4 669.806 628.488 666.185 624.474 665.753ZM628.887 673.591C628.569 676.461 625.991 678.541 623.119 678.223C620.272 677.913 618.176 675.336 618.486 672.465C618.796 669.594 621.398 667.523 624.253 667.833C627.117 668.143 629.197 670.728 628.887 673.591Z" fill="#1F1F39"/>
<path d="M609.324 685.612L256.521 969.094H253.919L608.304 684.34C608.655 684.063 609.169 684.111 609.454 684.462C609.732 684.813 609.675 685.327 609.324 685.612Z" fill="#1F1F39"/>
<path d="M824.476 94.4581C820.462 94.0177 816.848 96.9293 816.408 100.942C815.976 104.954 818.88 108.576 822.893 109.008C826.907 109.448 830.529 106.537 830.97 102.524C831.402 98.5115 828.482 94.8904 824.476 94.4581ZM828.881 102.296C828.563 105.166 825.985 107.246 823.114 106.928C820.267 106.618 818.17 104.041 818.48 101.17C818.79 98.2994 821.392 96.2279 824.248 96.5378C827.119 96.8477 829.191 99.433 828.881 102.296Z" fill="#6D2333"/>
<path d="M1326.16 547.381C1322.13 547.454 1318.89 550.79 1318.97 554.827C1319.03 558.864 1322.37 562.085 1326.41 562.02C1330.45 561.947 1333.68 558.611 1333.6 554.574C1333.54 550.537 1330.19 547.316 1326.16 547.381ZM1326.38 559.924C1323.51 559.973 1321.11 557.673 1321.06 554.786C1321.01 551.907 1323.33 549.526 1326.2 549.477C1329.08 549.428 1331.47 551.728 1331.51 554.615C1331.56 557.494 1329.26 559.875 1326.38 559.924Z" fill="#261F38"/>
<path d="M1313.62 568.985L926.827 969.092H924.559L1312.44 567.852C1312.75 567.525 1313.27 567.517 1313.59 567.827C1313.92 568.145 1313.93 568.659 1313.62 568.985Z" fill="#261F38"/>
<path d="M1728.2 0V3.27042L1446.98 252.311L1271.61 84.9654L1033.04 298.659L1032.22 297.893L835.146 113.412L836.819 111.626L1033.07 295.34L1271.66 81.6378L1447.04 248.983L1728.2 0Z" fill="#7C2432"/>
</g>
<defs>
<linearGradient id="paint0_linear_88_24982" x1="-0.0037527" y1="525.386" x2="1728.2" y2="525.386" gradientUnits="userSpaceOnUse">
<stop stop-color="#C1282D"/>
<stop offset="1" stop-color="#091E3B"/>
</linearGradient>
<linearGradient id="paint1_linear_88_24982" x1="-0.0037527" y1="753.413" x2="673.607" y2="753.413" gradientUnits="userSpaceOnUse">
<stop stop-color="#C1282D"/>
<stop offset="1" stop-color="#091E3B"/>
</linearGradient>
<linearGradient id="paint2_linear_88_24982" x1="1195.2" y1="351.404" x2="1608.78" y2="351.404" gradientUnits="userSpaceOnUse">
<stop stop-color="#121E3A"/>
<stop offset="1" stop-color="#422136"/>
</linearGradient>
</defs>
</svg>
